<svg height="846" width="720" xmlns="http://www.w3.org/2000/svg">
<rect height="846" fill="#555" width="720"></rect>
<text fill="#7f7" font-family="Courier New" font-size="12" xml:space="preserve">
<tspan x="10" y="26">12 megabytes installed</tspan>
<tspan x="10" y="42"></tspan>
<tspan x="10" y="58">node_modules</tspan>
<tspan x="10" y="74">└─┬ massive@2.6.0 </tspan>
<tspan x="10" y="90">  ├── args-js@0.10.12 </tspan>
<tspan x="10" y="106">  ├─┬ async@2.3.0 </tspan>
<tspan x="10" y="122">  │ └── lodash@4.17.4 </tspan>
<tspan x="10" y="138">  ├─┬ commander@2.9.0 </tspan>
<tspan x="10" y="154">  │ └── graceful-readlink@1.0.1 </tspan>
<tspan x="10" y="170">  ├─┬ deasync@0.1.9 </tspan>
<tspan x="10" y="186">  │ ├── bindings@1.2.1 </tspan>
<tspan x="10" y="202">  │ └── nan@2.6.2 </tspan>
<tspan x="10" y="218">  ├─┬ glob@7.1.1 </tspan>
<tspan x="10" y="234">  │ ├── fs.realpath@1.0.0 </tspan>
<tspan x="10" y="250">  │ ├─┬ inflight@1.0.6 </tspan>
<tspan x="10" y="266">  │ │ └── wrappy@1.0.2 </tspan>
<tspan x="10" y="282">  │ ├── inherits@2.0.3 </tspan>
<tspan x="10" y="298">  │ ├─┬ minimatch@3.0.3 </tspan>
<tspan x="10" y="314">  │ │ └─┬ brace-expansion@1.1.7 </tspan>
<tspan x="10" y="330">  │ │   ├── balanced-match@0.4.2 </tspan>
<tspan x="10" y="346">  │ │   └── concat-map@0.0.1 </tspan>
<tspan x="10" y="362">  │ ├── once@1.4.0 </tspan>
<tspan x="10" y="378">  │ └── path-is-absolute@1.0.1 </tspan>
<tspan x="10" y="394">  ├─┬ pg@6.1.5 </tspan>
<tspan x="10" y="410">  │ ├── buffer-writer@1.0.1 </tspan>
<tspan x="10" y="426">  │ ├── packet-reader@0.2.0 </tspan>
<tspan x="10" y="442">  │ ├── pg-connection-string@0.1.3 </tspan>
<tspan x="10" y="458">  │ ├─┬ pg-pool@1.7.1 </tspan>
<tspan x="10" y="474">  │ │ ├── generic-pool@2.4.3 </tspan>
<tspan x="10" y="490">  │ │ └── object-assign@4.1.0 </tspan>
<tspan x="10" y="506">  │ ├─┬ pg-types@1.11.0 </tspan>
<tspan x="10" y="522">  │ │ ├── ap@0.2.0 </tspan>
<tspan x="10" y="538">  │ │ ├── postgres-array@1.0.2 </tspan>
<tspan x="10" y="554">  │ │ ├── postgres-bytea@1.0.0 </tspan>
<tspan x="10" y="570">  │ │ ├── postgres-date@1.0.3 </tspan>
<tspan x="10" y="586">  │ │ └─┬ postgres-interval@1.0.2 </tspan>
<tspan x="10" y="602">  │ │   └── xtend@4.0.1 </tspan>
<tspan x="10" y="618">  │ ├─┬ pgpass@1.0.1 </tspan>
<tspan x="10" y="634">  │ │ └─┬ split@1.0.0 </tspan>
<tspan x="10" y="650">  │ │   └── through@2.3.8 </tspan>
<tspan x="10" y="666">  │ └── semver@4.3.2 </tspan>
<tspan x="10" y="682">  ├─┬ pg-query-stream@0.7.0 </tspan>
<tspan x="10" y="698">  │ ├── pg-cursor@1.0.0 </tspan>
<tspan x="10" y="714">  │ └─┬ readable-stream@1.1.14 </tspan>
<tspan x="10" y="730">  │   ├── core-util-is@1.0.2 </tspan>
<tspan x="10" y="746">  │   ├── isarray@0.0.1 </tspan>
<tspan x="10" y="762">  │   └── string_decoder@0.10.31 </tspan>
<tspan x="10" y="778">  ├── promise-polyfill@6.0.2 </tspan>
<tspan x="10" y="794">  ├─┬ strip-bom@2.0.0 </tspan>
<tspan x="10" y="810">  │ └── is-utf8@0.2.1 </tspan>
<tspan x="10" y="826">  └── underscore@1.8.3</tspan>
</text>
</svg>
